<svg width="21" height="16" fill="none" xmlns="http://www.w3.org/2000/svg"><path fill-rule="evenodd" clip-rule="evenodd" d="M2.077 2.53a1.25 1.25 0 011.196-.884h14c.563 0 1.04.373 1.195.885l-8.195 5.464L2.077 2.53zm-1.554.352a.75.75 0 000 .024v9.99a2.75 2.75 0 002.75 2.75h14a2.75 2.75 0 002.75-2.75v-9.99m-1.5 1.391v8.599c0 .69-.56 1.25-1.25 1.25h-14c-.69 0-1.25-.56-1.25-1.25V4.297L9.857 9.52a.75.75 0 00.832 0l7.834-5.223zm1.5-1.415a2.75 2.75 0 00-2.75-2.736h-14a2.75 2.75 0 00-2.75 2.736" fill="#141718"/></svg>